<svg width="37" height="36" viewBox="0 0 37 36" fill="none" xmlns="http://www.w3.org/2000/svg">
  <path
    d="M15.993 27.7492C15.1856 25.9943 14.0619 24.36 12.6873 22.978C11.7709 22.0567 10.7235 21.256 9.62161 20.576C9.20704 20.3347 8.77065 20.1044 8.30152 19.896C6.10865 18.8869 3.67575 18.492 1.2865 18.4043H1.19922V20.7954H2.63932C5.63952 20.7954 8.69428 22.298 11.0072 24.6233C13.32 26.9485 14.8147 30.0196 14.8147 33.0358V34.5385H17.193V34.2753C17.1058 29.7235 16.0039 27.7492 16.0039 27.7602L15.993 27.7492Z"
    fill="white" />
  <path fill-rule="evenodd" clip-rule="evenodd"
    d="M15.9931 11.5256C16.8004 13.2805 17.9241 14.9148 19.2987 16.2968C20.2152 17.2181 21.2625 18.0188 22.3644 18.6988C22.779 18.9401 23.2154 19.1705 23.6845 19.3788C25.8774 20.3879 28.3103 20.7828 30.6995 20.8705H30.7868V18.4795H29.3467C26.3465 18.4795 23.2917 16.9768 20.9788 14.6516C18.666 12.3263 17.1713 9.25522 17.1713 6.23897V4.73633H14.793V4.99956C14.8802 9.55136 15.9821 11.5256 15.9821 11.5147L15.9931 11.5256Z"
    fill="url(#paint0_linear_10354_28527)" />
  <path fill-rule="evenodd" clip-rule="evenodd"
    d="M7.92116 19.6189C9.66673 18.8073 11.2923 17.6776 12.6669 16.2956C13.5834 15.3743 14.3798 14.3213 15.0562 13.2135C15.2962 12.7967 15.5253 12.358 15.7326 11.8864C16.7363 9.68178 17.1291 7.23587 17.2163 4.83384V4.74609H14.838V6.19389C14.838 9.21014 13.3433 12.2812 11.0305 14.6065C8.71758 16.9317 5.66282 18.4344 2.66262 18.4344H1.16797V20.8254H1.4298C5.95739 20.7377 7.92116 19.6299 7.91025 19.6299L7.92116 19.6189Z"
    fill="white" />
  <path fill-rule="evenodd" clip-rule="evenodd"
    d="M24.0667 19.6538C22.3211 20.4654 20.6955 21.5951 19.3209 22.9771C18.4045 23.8984 17.608 24.9514 16.9316 26.0592C16.6916 26.476 16.4625 26.9147 16.2552 27.3863C15.2515 29.5909 14.8588 32.0368 14.7715 34.4389V34.5266H17.1498V33.0788C17.1498 30.0626 18.6445 26.9915 20.9574 24.6662C23.2702 22.341 26.325 20.8383 29.3252 20.8383H30.8199V18.4473H30.558C26.0304 18.535 24.0667 19.6428 24.0776 19.6428L24.0667 19.6538Z"
    fill="white" />
  <path
    d="M30.8095 20.8818C31.4722 20.8818 32.0095 20.3416 32.0095 19.6753C32.0095 19.0089 31.4722 18.4688 30.8095 18.4688C30.1467 18.4688 29.6094 19.0089 29.6094 19.6753C29.6094 20.3416 30.1467 20.8818 30.8095 20.8818Z"
    fill="white" />
  <path
    d="M16.0165 5.95402C16.6793 5.95402 17.2166 5.41385 17.2166 4.74752C17.2166 4.08118 16.6793 3.54102 16.0165 3.54102C15.3537 3.54102 14.8164 4.08118 14.8164 4.74752C14.8164 5.41385 15.3537 5.95402 16.0165 5.95402Z"
    fill="white" />
  <path
    d="M1.20008 20.8173C1.86287 20.8173 2.40016 20.2771 2.40016 19.6108C2.40016 18.9445 1.86287 18.4043 1.20008 18.4043C0.537295 18.4043 0 18.9445 0 19.6108C0 20.2771 0.537295 20.8173 1.20008 20.8173Z"
    fill="white" />
  <path
    d="M15.9727 35.7435C16.6415 35.7435 17.1837 35.1985 17.1837 34.5261C17.1837 33.8537 16.6415 33.3086 15.9727 33.3086C15.3039 33.3086 14.7617 33.8537 14.7617 34.5261C14.7617 35.1985 15.3039 35.7435 15.9727 35.7435Z"
    fill="white" />
  <path
    d="M31.9609 6.02663C31.9608 6.0265 31.9607 6.02634 31.9606 6.02616C31.7425 5.60757 31.439 5.21775 31.0678 4.8881C30.8203 4.66829 30.5374 4.47726 30.2398 4.31501C30.1278 4.25744 30.0099 4.20249 29.8832 4.15277C29.2909 3.91202 28.6338 3.81781 27.9884 3.79688C27.9754 3.79688 27.9648 3.80743 27.9648 3.82045V4.08211C27.9648 4.23964 28.0925 4.36735 28.2501 4.36735H28.3538C29.1642 4.36735 29.9893 4.72586 30.614 5.28063C31.2387 5.8354 31.6424 6.56812 31.6424 7.28775V7.32506C31.6424 7.50246 31.7863 7.64626 31.9636 7.64626H32.222C32.2567 7.64626 32.2848 7.61814 32.2848 7.58346C32.2624 6.54746 31.9905 6.07111 31.9655 6.03171C31.9647 6.03052 31.962 6.02757 31.9609 6.02663Z"
    fill="white" stroke="white" stroke-width="0.5" />
  <path fill-rule="evenodd" clip-rule="evenodd"
    d="M31.9645 2.15479C31.9647 2.15492 31.9648 2.15508 31.9649 2.15525C32.183 2.57385 32.4864 2.96366 32.8577 3.29332C33.1052 3.51313 33.3881 3.70416 33.6857 3.86641C33.7977 3.92398 33.9156 3.97893 34.0423 4.02865C34.6346 4.2694 35.2917 4.36361 35.9371 4.38454C35.9501 4.38454 35.9606 4.37399 35.9606 4.36097V4.09931C35.9606 3.94178 35.8329 3.81407 35.6754 3.81407H35.5716C34.7613 3.81407 33.9362 3.45556 33.3115 2.90079C32.6867 2.34602 32.283 1.6133 32.283 0.893665V0.856357C32.283 0.678963 32.1392 0.535156 31.9618 0.535156H31.7034C31.6687 0.535156 31.6406 0.563275 31.6406 0.597961C31.6631 1.63396 31.935 2.11031 31.96 2.14971C31.9607 2.1509 31.9635 2.15385 31.9645 2.15479Z"
    fill="url(#paint1_linear_10354_28527)" stroke="white" stroke-width="0.5" />
  <path fill-rule="evenodd" clip-rule="evenodd"
    d="M29.7829 4.08962C29.783 4.08952 29.7831 4.08943 29.7833 4.08937C30.2547 3.89573 30.6937 3.62623 31.0649 3.29656C31.3124 3.07674 31.5276 2.82553 31.7103 2.56122C31.7751 2.46178 31.837 2.35711 31.893 2.24459C32.1641 1.7186 32.2701 1.13504 32.2937 0.56195C32.2937 0.550388 32.2843 0.541016 32.2728 0.541016H31.9725C31.7951 0.541016 31.6513 0.684822 31.6513 0.862216V0.88644C31.6513 1.60607 31.2476 2.33879 30.6229 2.89356C29.9982 3.44834 29.1731 3.80685 28.3627 3.80685H28.2442C28.0867 3.80685 27.959 3.93455 27.959 4.09208V4.3066C27.959 4.34565 27.9906 4.37732 28.0297 4.37732C29.1974 4.35733 29.7338 4.11544 29.7772 4.09365C29.7784 4.09307 29.7819 4.09048 29.7829 4.08962Z"
    fill="white" stroke="white" stroke-width="0.5" />
  <path fill-rule="evenodd" clip-rule="evenodd"
    d="M34.1437 4.09434C34.1435 4.09444 34.1434 4.09452 34.1433 4.09458C33.6719 4.28823 33.2329 4.55773 32.8616 4.8874C32.6141 5.10722 32.399 5.35843 32.2163 5.62274C32.1514 5.72218 32.0896 5.82685 32.0336 5.93937C31.7625 6.46536 31.6564 7.04892 31.6328 7.62201C31.6328 7.63357 31.6422 7.64294 31.6537 7.64294H31.954C32.1314 7.64294 32.2752 7.49914 32.2752 7.32174V7.29752C32.2752 6.57789 32.6789 5.84517 33.3036 5.2904C33.9284 4.73562 34.7535 4.37711 35.5638 4.37711H35.6823C35.8398 4.37711 35.9675 4.24941 35.9675 4.09188V3.87736C35.9675 3.8383 35.9359 3.80664 35.8968 3.80664C34.7291 3.82663 34.1928 4.06852 34.1493 4.09031C34.1481 4.09089 34.1446 4.09348 34.1437 4.09434Z"
    fill="white" stroke="white" stroke-width="0.5" />
  <path
    d="M35.9648 4.39016C36.1438 4.39016 36.2889 4.26128 36.2889 4.10231C36.2889 3.94333 36.1438 3.81445 35.9648 3.81445C35.7858 3.81445 35.6406 3.94333 35.6406 4.10231C35.6406 4.26128 35.7858 4.39016 35.9648 4.39016Z"
    fill="white" stroke="white" stroke-width="0.5" />
  <path
    d="M31.9687 0.825707C32.1477 0.825707 32.2928 0.696831 32.2928 0.537854C32.2928 0.378876 32.1477 0.25 31.9687 0.25C31.7897 0.25 31.6445 0.378876 31.6445 0.537854C31.6445 0.696831 31.7897 0.825707 31.9687 0.825707Z"
    fill="white" stroke="white" stroke-width="0.5" />
  <path
    d="M27.9667 4.37258C28.1457 4.37258 28.2909 4.24371 28.2909 4.08473C28.2909 3.92575 28.1457 3.79688 27.9667 3.79688C27.7877 3.79688 27.6426 3.92575 27.6426 4.08473C27.6426 4.24371 27.7877 4.37258 27.9667 4.37258Z"
    fill="white" stroke="white" stroke-width="0.5" />
  <path
    d="M31.956 7.93446C32.1366 7.93446 32.2831 7.80441 32.2831 7.64399C32.2831 7.48356 32.1366 7.35352 31.956 7.35352C31.7754 7.35352 31.6289 7.48356 31.6289 7.64399C31.6289 7.80441 31.7754 7.93446 31.956 7.93446Z"
    fill="white" stroke="white" stroke-width="0.5" />
  <defs>
    <linearGradient id="paint0_linear_10354_28527" x1="13.3856" y1="6.45833" x2="30.732"
      y2="20.9439" gradientUnits="userSpaceOnUse">
      <stop offset="0.28" stop-color="white" />
      <stop offset="0.74" stop-color="#2043BF" />
    </linearGradient>
    <linearGradient id="paint1_linear_10354_28527" x1="31.2605" y1="0.946002" x2="35.4599"
      y2="4.91608" gradientUnits="userSpaceOnUse">
      <stop offset="0.28" stop-color="white" />
      <stop offset="0.74" stop-color="#0758A7" />
    </linearGradient>
  </defs>
</svg>